<svg id="visual" viewBox="0 0 900 900" width="900" height="900" xmlns="http://www.w3.org/2000/svg" xmlns:xlink="http://www.w3.org/1999/xlink" version="1.1"><path d="M0 574L13.7 524C27.3 474 54.7 374 82 335.8C109.3 297.7 136.7 321.3 163.8 382.7C191 444 218 543 245.2 588C272.3 633 299.7 624 327 608.2C354.3 592.3 381.7 569.7 409 504.8C436.3 440 463.7 333 491 339.2C518.3 345.3 545.7 464.7 573 478.7C600.3 492.7 627.7 401.3 654.8 358C682 314.7 709 319.3 736.2 327.3C763.3 335.3 790.7 346.7 818 357.7C845.3 368.7 872.7 379.3 886.3 384.7L900 390" fill="none" stroke-linecap="round" stroke-linejoin="miter" stroke="#0093ff" stroke-width="40"></path></svg>